<?xml version="1.0" encoding="utf-8"?>
<!-- Generator: Adobe Illustrator 19.0.0, SVG Export Plug-In . SVG Version: 6.00 Build 0)  -->
<svg version="1.1" id="Layer_1" xmlns="http://www.w3.org/2000/svg" xmlns:xlink="http://www.w3.org/1999/xlink" x="0px" y="0px"
	 viewBox="0 0 90.3 80.7" style="enable-background:new 0 0 90.3 80.7;" xml:space="preserve">
<style type="text/css">
	.st0{fill:#00753C;}
	.st1{fill:none;stroke:#95C11F;stroke-width:0.978;stroke-linecap:round;stroke-linejoin:round;stroke-dasharray:1.953,1.953;}
</style>
<path class="st0" d="M85.7,29.8c10.9,24.8-11.5,48-36.6,48.4c-9.5,0.1-17.9-3.8-26.6-6.7c-11.8-3.9-17.6-9.8-20-22.4
	c-2.2-11.3-0.9-22.1,9.2-28.9C18.3,15.6,25.1,8.3,32,4.7c9.4-5,25.3-1.9,34.5,2.4C76.1,11.6,81.6,20.4,85.7,29.8"/>
<path class="st1" d="M82.1,30.8C91.9,53.2,71.7,74.1,49,74.5c-8.6,0.1-16.1-3.5-24-6c-10.7-3.5-15.9-8.8-18-20.2
	c-2-10.2-0.8-20,8.3-26.1c6-4.1,12.1-10.6,18.4-14c8.5-4.5,22.8-1.7,31.1,2.2C73.4,14.4,78.3,22.3,82.1,30.8z"/>
</svg>
