<?xml version="1.0" encoding="utf-8"?>
<!-- Generator: Adobe Illustrator 19.0.0, SVG Export Plug-In . SVG Version: 6.00 Build 0)  -->
<svg version="1.1" id="Layer_1" xmlns="http://www.w3.org/2000/svg" xmlns:xlink="http://www.w3.org/1999/xlink" x="0px" y="0px"
	 viewBox="0 0 406 181.3" style="enable-background:new 0 0 406 181.3;" xml:space="preserve">
<style type="text/css">
	.st0{fill:#FFFFFF;}
</style>
<path id="XMLID_107_" class="st0" d="M385.6,50.4c4.3,9.8-4.6,19-14.5,19.1c-3.8,0.1-7.1-1.5-10.5-2.6c-4.7-1.5-6.9-3.9-7.9-8.9
	c-0.9-4.5-0.3-8.7,3.6-11.4c2.6-1.8,5.3-4.7,8.1-6.1c3.7-2,10-0.8,13.6,1C381.8,43.2,384,46.7,385.6,50.4"/>
<path id="XMLID_105_" class="st0" d="M339.9,53.8c-3.6,0-7.1,0.4-10.5,0.9c-3-28.1-28.1-50.1-58.7-50.1c-13.2,0-25.3,4.1-35.1,11
	c-7.2-6.8-17.2-11-28.3-11c-9,0-17.3,2.9-24,7.6c-8.1-4.8-17.7-7.6-28-7.6c-22,0-40.9,12.7-48.9,30.8c-7.9-4.6-17.2-7.2-27.2-7.2
	c-29,0-52.5,22.2-52.5,49.6c0,2.3,0.2,4.4,0.5,6.6c-13.1,7.7-21.9,21.4-21.9,37.1c0,24.1,20.7,43.7,46.3,43.7
	c7.9,0,15.4-1.9,21.9-5.2c6.7,11.3,19.5,18.9,34.2,18.9c12.3,0,23.2-5.3,30.4-13.7c8.6,5.3,18.8,8.3,29.8,8.3c16.6,0,31.4-7,41.5-18
	c10.8,10.8,26.1,17.5,43,17.5c18,0,34.1-7.6,44.9-19.5c11,10,26,16.2,42.5,16.2c33.9,0,61.4-26,61.4-58
	C401.3,79.8,373.8,53.8,339.9,53.8"/>
</svg>
