<?xml version="1.0" encoding="utf-8"?>
<!-- Generator: Adobe Illustrator 19.0.0, SVG Export Plug-In . SVG Version: 6.00 Build 0)  -->
<svg version="1.1" id="Layer_1" xmlns="http://www.w3.org/2000/svg" xmlns:xlink="http://www.w3.org/1999/xlink" x="0px" y="0px"
	 viewBox="0 0 388 264.3" style="enable-background:new 0 0 388 264.3;" xml:space="preserve">
<style type="text/css">
	.st0{fill:#9FF6FF;}
	.st1{fill:#C0FBFF;}
</style>
<path id="XMLID_147_" class="st0" d="M14.4,0c11.2,48.6,49.6,100,137.8,92.7c35.5-2.9,57.3,52.7,87.2,67.3
	c29.9,14.7,78.4,16,79.3,47c0.8,27.3,69.2,55.8,69.2,55.8L388,0H14.4z"/>
<path id="XMLID_2_" class="st1" d="M388.7,0C371.2,0,286,0,286,0s-6.1,10.5-7.4,16.5c-2.3-0.4-4.7-0.6-7.1-0.6
	c-23.8,0-43.1,19.3-43.1,43.1c0,23.8,19.3,43.1,43.1,43.1c8.5,0,16.3-2.5,23-6.7c6,7.5,15.2,12.4,25.5,12.4c9.5,0,18.1-4.1,24-10.6
	c6.8,6.6,16.1,10.6,26.3,10.6c6.6,0,12.9-1.7,18.3-4.7"/>
<path id="XMLID_3_" class="st1" d="M110,52.2c0-15.1-47.8-1.5-30.9,14.5c3.7,3.5,20.2,0.7,23.9,0c2.1-0.4,10,2.1,12-1.3
	C118,60.5,117.8,52.5,110,52.2"/>
<path id="XMLID_148_" class="st0" d="M59.1,82.2c0-25.2-79.7-2.6-51.4,24.2c6.2,5.9,33.6,1.1,39.9-0.1c3.5-0.7,16.6,3.5,20.1-2.2
	C72.6,95.9,72.2,82.6,59.1,82.2"/>
</svg>
