<?xml version="1.0" encoding="utf-8"?>
<!-- Generator: Adobe Illustrator 19.0.0, SVG Export Plug-In . SVG Version: 6.00 Build 0)  -->
<svg version="1.1" id="Layer_1" xmlns="http://www.w3.org/2000/svg" xmlns:xlink="http://www.w3.org/1999/xlink" x="0px" y="0px"
	 viewBox="-407.5 258 153.8 47.8" style="enable-background:new -407.5 258 153.8 47.8;" xml:space="preserve">
<style type="text/css">
	.st0{fill:#FFFFFF;}
	.st1{fill:none;stroke:#4dabff <!--#0083FF-->;stroke-miterlimit:10;}
</style>
<g id="XMLID_5_">
	<path class="st0" d="M-402.3,277.2c1.8-19.9,58.8-11.3,77.4-13.4c9.9-1,44.2-1.5,53.9,1.5c8.8,2.7,14.5,8,11.4,21.9
		c-1.5,6.6-4.9,10.2-9.4,12c-7.6,3-26.1,0.9-35,0.2c-17.3-1.5-83.4,1-82.3,0.9C-405.4,297.1-403,286.1-402.3,277.2z"/>
	<path class="st1" d="M-402.3,277.2c1.8-19.9,58.8-11.3,77.4-13.4c9.9-1,44.2-1.5,53.9,1.5c8.8,2.7,14.5,8,11.4,21.9
		c-1.5,6.6-4.9,10.2-9.4,12c-7.6,3-26.1,0.9-35,0.2c-17.3-1.5-83.4,1-82.3,0.9C-405.4,297.1-403,286.1-402.3,277.2z"/>
</g>
</svg>
