<?xml version="1.0" encoding="utf-8"?>
<!-- Generator: Adobe Illustrator 19.0.0, SVG Export Plug-In . SVG Version: 6.00 Build 0)  -->
<svg version="1.1" id="Layer_1" xmlns="http://www.w3.org/2000/svg" xmlns:xlink="http://www.w3.org/1999/xlink" x="0px" y="0px"
	 viewBox="0 0 960 182" style="enable-background:new 0 0 960 182;" xml:space="preserve">
<style type="text/css">
	.st0{fill:#A0C51E;}
	.st1{clip-path:url(#XMLID_32_);fill:url(#XMLID_33_);}
</style>
<path id="XMLID_5_" class="st0" d="M536,107.2C524.7,76.8,604.8,26,686,32.5c47.8,3.8,45.3-15.7,72.8-24.6
	C786.4-1,804,2.5,831.9,6.7c41.9,6.4,84.8,3.4,127.6,1.1c0.7,0,2.2-0.1,2.2-0.1l0.3,98.8l-2.5,0L536,107.2z"/>
<g id="XMLID_2_">
	<defs>
		<path id="XMLID_3_" d="M511.8,51.9c-115.4,2.5-120.3,49.7-297,11.6C96.9,38,1.1,71.8,1.1,71.8v110.6h960.7v-77.6
			c-69.3-3.3-59.4-47.4-203.3-16.9c-83.9,17.8-117.3,1.8-151.8-14.1c-23.8-11-48-22-89.6-22C515.3,51.8,513.6,51.9,511.8,51.9"/>
	</defs>
	<clipPath id="XMLID_32_">
		<use xlink:href="#XMLID_3_"  style="overflow:visible;"/>
	</clipPath>
	
		<linearGradient id="XMLID_33_" gradientUnits="userSpaceOnUse" x1="59.9153" y1="198.0074" x2="61.0408" y2="198.0074" gradientTransform="matrix(258.3805 447.5281 447.5281 -258.3805 -103750.5156 24220.2695)">
		<stop  offset="0" style="stop-color:#61B233"/>
		<stop  offset="0.2133" style="stop-color:#61B233"/>
		<stop  offset="1" style="stop-color:#95C11F"/>
	</linearGradient>
	<polygon id="XMLID_4_" class="st1" points="721.6,-326.3 1033.2,146.3 241.3,546.8 -70.3,74.1 	"/>
</g>
</svg>
