<?xml version="1.0" encoding="utf-8"?>
<!-- Generator: Adobe Illustrator 19.0.0, SVG Export Plug-In . SVG Version: 6.00 Build 0)  -->
<svg version="1.1" id="Layer_1" xmlns="http://www.w3.org/2000/svg" xmlns:xlink="http://www.w3.org/1999/xlink" x="0px" y="0px"
	 viewBox="182 329.9 982 182" style="enable-background:new 182 329.9 982 182;" xml:space="preserve">
<style type="text/css">
	.st0{fill:#A0C51E;}
	.st1{clip-path:url(#SVGID_2_);fill:url(#XMLID_3_);}
</style>
<path id="XMLID_5_" class="st0" d="M718.1,437.1c-11.9-30.4,72.3-81.2,157.7-74.7c50.3,3.8,47.6-15.7,76.6-24.6
	c29-8.9,47.5-5.4,76.9-1.2c44.1,6.4,89.2,3.4,134.2,1.1c0.7,0,2.3-0.1,2.3-0.1l0.3,98.8h-2.6L718.1,437.1z"/>
<g id="XMLID_2_">
	<g>
		<defs>
			<path id="SVGID_1_" d="M704.4,381.8c-117.8,2.5-122.8,49.7-303.2,11.6c-120.4-25.5-218.1,8.3-218.1,8.3v110.6h980.7v-77.6
				c-70.7-3.3-60.6-47.4-207.5-16.9c-85.6,17.8-119.7,1.8-155-14.1c-24.3-11-49-22-91.5-22C708,381.7,706.3,381.8,704.4,381.8"/>
		</defs>
		<clipPath id="SVGID_2_">
			<use xlink:href="#SVGID_1_"  style="overflow:visible;"/>
		</clipPath>
		
			<linearGradient id="XMLID_3_" gradientUnits="userSpaceOnUse" x1="424.292" y1="644.38" x2="425.4385" y2="644.38" gradientTransform="matrix(258.3805 447.5281 -447.5281 258.3805 179283.2031 -356179.5938)">
			<stop  offset="0" style="stop-color:#61B233"/>
			<stop  offset="0.2133" style="stop-color:#61B233"/>
			<stop  offset="1" style="stop-color:#95C11F"/>
		</linearGradient>
		<polygon id="XMLID_4_" class="st1" points="918.6,3.6 1236.7,476.2 428.3,876.7 110.2,404 		"/>
	</g>
</g>
</svg>
