<?xml version="1.0" encoding="utf-8"?>
<!-- Generator: Adobe Illustrator 19.0.0, SVG Export Plug-In . SVG Version: 6.00 Build 0)  -->
<svg version="1.1" id="Layer_1" xmlns="http://www.w3.org/2000/svg" xmlns:xlink="http://www.w3.org/1999/xlink" x="0px" y="0px"
	 viewBox="-419 259 144 43" style="enable-background:new -419 259 144 43;" xml:space="preserve">
<style type="text/css">
	.st0{fill:url(#XMLID_2_);}
</style>
<linearGradient id="XMLID_2_" gradientUnits="userSpaceOnUse" x1="-416.627" y1="280.6102" x2="-278.1265" y2="280.6102" gradientTransform="matrix(1 0 0 -1 0 562)">
	<stop  offset="4.040404e-002" style="stop-color:#1557A0"/>
	<stop  offset="1" style="stop-color:#1B74AF"/>
</linearGradient>
<path id="XMLID_56_" class="st0" d="M-415.3,271.5c2.2-15.3,56.2-5.5,74-7c9.4-0.8,42.3-1.9,51.6,0.1c6.3,1.4,10.9,4.2,11.5,9.4
	c0.2,1.8,0,13.4-0.8,15.9c-1.5,4.6-4.7,7-9.1,8.3c-7.3,2.1-24.9,1.5-33.4,1c-16.6-1-79.7,0.9-78.7,0.8c-11-1.4-14.5-5.5-15.4-9.3
	C-416.1,288.3-417.8,281-415.3,271.5z"/>
</svg>
