<?xml version="1.0" encoding="utf-8"?>
<!-- Generator: Adobe Illustrator 19.0.0, SVG Export Plug-In . SVG Version: 6.00 Build 0)  -->
<svg version="1.1" id="Layer_1" xmlns="http://www.w3.org/2000/svg" xmlns:xlink="http://www.w3.org/1999/xlink" x="0px" y="0px"
	 viewBox="-452.3 250.5 64.5 63" style="enable-background:new -452.3 250.5 64.5 63;" xml:space="preserve">
<style type="text/css">
	.st0{fill:#3AAA35;}
	.st1{fill:#FFFFFF;}
</style>
<g id="XMLID_32_">
	<path id="XMLID_56_" class="st0" d="M-421.3,252c16.8-1,31.3,16.4,31.3,32.3s-14.4,27-30.3,27s-31.5-21.5-29.5-37.3
		C-447.8,258.3-437.1,252.9-421.3,252z"/>
	<path id="XMLID_45_" class="st1" d="M-433.5,284.8c-0.7-0.7-1.8-0.7-2.4,0s-0.7,1.8,0,2.4l8.1,8.1c0.4,0.4,0.8,0.5,1.2,0.5h0.1
		c0.5,0,0.9-0.3,1.3-0.7l20.1-24.2c0.6-0.8,0.5-1.8-0.2-2.4c-0.8-0.6-1.8-0.5-2.4,0.2l-19,22.8L-433.5,284.8z"/>
</g>
</svg>
