<?xml version="1.0" encoding="utf-8"?>
<!-- Generator: Adobe Illustrator 19.0.0, SVG Export Plug-In . SVG Version: 6.00 Build 0)  -->
<svg version="1.1" id="Layer_1" xmlns="http://www.w3.org/2000/svg" xmlns:xlink="http://www.w3.org/1999/xlink" x="0px" y="0px"
	 viewBox="-450 248.3 62.5 66" style="enable-background:new -450 248.3 62.5 66;" xml:space="preserve">
<style type="text/css">
	.st0{fill:#C61A4F;}
	.st1{fill:#FFFFFF;}
</style>
<g id="Layer_1_1_">
	<g id="XMLID_32_">
		<path id="XMLID_56_" class="st0" d="M-417.8,251c15.9,0,27.8,18.4,27.8,34.3s-14.9,26.3-30.8,26.3s-26.5-11.9-26.5-27.8
			S-433.6,251-417.8,251z"/>
	</g>
</g>
<g id="Layer_2">
	<path id="XMLID_174_" class="st1" d="M-430.8,298.8l25.3-30.4c0,0,0.8-1.1-0.5-2.1c-1.2-1.1-2.3-0.1-2.3-0.1l-25,30.3
		c0,0-0.8,1.4,0.5,2.2C-432.2,299.1-432.1,299.3-430.8,298.8z"/>
	<path id="XMLID_45_" class="st1" d="M-404.7,295.9l-26.7-29.1c0,0-1-0.9-2.1,0.2c-1.1,1.1-0.4,2.2-0.4,2.2l26.6,28.9
		c0,0,1.3,0.9,2.2-0.2C-404.7,297.5-404.4,297.4-404.7,295.9z"/>
</g>
</svg>
