<?xml version="1.0" encoding="utf-8"?>
<!-- Generator: Adobe Illustrator 19.0.0, SVG Export Plug-In . SVG Version: 6.00 Build 0)  -->
<svg version="1.1" xmlns="http://www.w3.org/2000/svg" xmlns:xlink="http://www.w3.org/1999/xlink" x="0px" y="0px"
	 viewBox="0 0 60.3 61.5" style="enable-background:new 0 0 60.3 61.5;" xml:space="preserve">
<style type="text/css">
	.st0{fill:#C61A4F;}
	.st1{fill:#FFFFFF;}
</style>
<g id="Layer_1">
	<g id="XMLID_32_">
		<circle id="XMLID_56_" class="st0" cx="30.2" cy="31" r="28.7"/>
	</g>
</g>
<g id="Layer_2">
	<path id="XMLID_174_" class="st1" d="M18.4,47.8l26.4-31.8c0,0,0.8-1.1-0.5-2.2s-2.4-0.1-2.4-0.1L15.8,45.4c0,0-0.8,1.5,0.5,2.3
		C16.9,48.1,17,48.3,18.4,47.8z"/>
	<path id="XMLID_45_" class="st1" d="M45.6,44.8L17.7,14.4c0,0-1-0.9-2.2,0.2s-0.4,2.3-0.4,2.3l27.8,30.2c0,0,1.4,0.9,2.3-0.2
		C45.6,46.4,45.9,46.3,45.6,44.8z"/>
</g>
</svg>
