<?xml version="1.0" encoding="utf-8"?>
<!-- Generator: Adobe Illustrator 19.0.0, SVG Export Plug-In . SVG Version: 6.00 Build 0)  -->
<svg version="1.1" id="Layer_1" xmlns="http://www.w3.org/2000/svg" xmlns:xlink="http://www.w3.org/1999/xlink" x="0px" y="0px"
	 viewBox="0 0 180.7 82.7" style="enable-background:new 0 0 180.7 82.7;" xml:space="preserve">
<style type="text/css">
	.st0{fill:#1D71B8;}
</style>
<path id="XMLID_6_" class="st0" d="M150.2,25.7c-1.6,0-3.1,0.2-4.6,0.4c-1.3-12.3-12.3-21.9-25.6-21.9c-5.8,0-11.1,1.8-15.3,4.8
	c-3.2-3-7.5-4.8-12.4-4.8c-3.9,0-7.6,1.2-10.5,3.3C78.2,5.5,74,4.2,69.5,4.2c-9.6,0-17.9,5.5-21.4,13.4c-3.5-2-7.5-3.2-11.9-3.2
	c-12.7,0-22.9,9.7-22.9,21.7c0,1,0.1,1.9,0.2,2.9C7.8,42.4,4,48.4,4,55.3C4,65.8,13,74.4,24.2,74.4c3.5,0,6.7-0.8,9.6-2.3
	c2.9,4.9,8.5,8.3,15,8.3c5.4,0,10.2-2.3,13.3-6c3.7,2.3,8.2,3.6,13,3.6c7.3,0,13.7-3.1,18.1-7.9c4.7,4.7,11.4,7.7,18.8,7.7
	c7.9,0,14.9-3.3,19.6-8.5c4.8,4.4,11.4,7.1,18.6,7.1C165,76.4,177,65,177,51.1C177,37.1,165,25.7,150.2,25.7z"/>
</svg>
