<?xml version="1.0" encoding="utf-8"?>
<!-- Generator: Adobe Illustrator 19.0.0, SVG Export Plug-In . SVG Version: 6.00 Build 0)  -->
<svg version="1.1" id="Layer_1" xmlns="http://www.w3.org/2000/svg" xmlns:xlink="http://www.w3.org/1999/xlink" x="0px" y="0px"
	 viewBox="0 0 30 26.8" style="enable-background:new 0 0 30 26.8;" xml:space="preserve">
<style type="text/css">
	.st0{fill:#2f82c8;}
</style>
<path class="st0" d="M18.7,16.8c3.5,0,6.4-2.8,6.5-6.2c0-3.4-2.9-6.3-6.4-6.3c-3.6,0-6.4,2.8-6.5,6.3c0,3.4,3.1,6.1,6.5,6 M13,17.6
	c-0.9,0.8-1.8,1.6-2.8,2.4c-1.8,1.5-3.5,3.1-5.3,4.6c-0.7,0.6-1.2,0.6-1.8-0.1c-0.1-0.1-0.2-0.2-0.3-0.3c-0.5-0.6-0.5-1.2,0.1-1.7
	c2.3-2.1,4.7-4.2,7.1-6.2c0.3-0.3,0.6-0.6,1-0.9c-1.5-2.4-1.9-5-1.1-7.6c0.7-2.1,2-3.7,3.9-4.8c3.8-2.3,8.9-1.6,11.8,1.8
	c3,3.3,3,8.3,0,11.6C22.6,19.8,17.2,20.6,13,17.6"/>
</svg>
