<?xml version="1.0" encoding="utf-8"?>
<!-- Generator: Adobe Illustrator 19.0.0, SVG Export Plug-In . SVG Version: 6.00 Build 0)  -->
<svg version="1.1" id="Capa_1" xmlns="http://www.w3.org/2000/svg" xmlns:xlink="http://www.w3.org/1999/xlink" x="0px" y="0px"
	 viewBox="-71.2 200.5 440.4 440.4" style="enable-background:new -71.2 200.5 440.4 440.4;" xml:space="preserve">
<style type="text/css">
	.st0{fill:#F2F2F2;}
</style>
<g>
	<g>
		<path class="st0" d="M49.2,245.9v341.4c0,1.6,1.3,3,3,3h182.1c1.6,0,3-1.3,3-3V245.9c0-1.6-1.3-3-3-3H52.2
			C50.5,242.9,49.2,244.3,49.2,245.9z M55.1,248.8h176.1v335.5H55.1V248.8z"/>
		<path class="st0" d="M161.7,596.9h-37c-6,0-10.9,4.8-10.9,10.6c0,5.8,4.8,10.7,10.7,11.1l10.6,0.7c2.2,0.1,5.1,0.2,8.1,0.2
			c2.9,0,5.8-0.1,8.1-0.2l10.6-0.7c5.9-0.4,10.7-5.3,10.7-11.1C172.6,601.7,167.7,596.9,161.7,596.9z M161.6,612.7l-10.6,0.7
			c-4.2,0.3-11.2,0.3-15.4,0l-10.6-0.7c-2.8-0.2-5.1-2.5-5.1-5.2c0-2.6,2.2-4.7,4.9-4.7h37c2.7,0,4.9,2.1,4.9,4.7
			C166.7,610.2,164.3,612.6,161.6,612.7z"/>
		<path class="st0" d="M30.1,245.9v349.6c0,25,20.4,45.4,45.4,45.4h135.3c25,0,45.4-20.4,45.4-45.4V245.9c0-25-20.4-45.4-45.4-45.4
			H75.6C50.5,200.5,30.1,220.8,30.1,245.9z M244.4,245.9v349.6c0,18.5-15.1,33.6-33.6,33.6H75.6C57.1,629,42,614,42,595.5V245.9
			c0-18.5,15.1-33.6,33.6-33.6h135.3C229.4,212.3,244.4,227.4,244.4,245.9z"/>
		<path class="st0" d="M82.8,220.9c2.1,0,3.8,1.7,3.8,3.8c0,2.1-1.7,3.8-3.8,3.8c-2.1,0-3.8-1.7-3.8-3.8
			C79,222.6,80.7,220.9,82.8,220.9z"/>
		<path class="st0" d="M166,220.9c2.1,0,3.8,1.7,3.8,3.8c0,2.1-1.7,3.8-3.8,3.8c-2.1,0-3.8-1.7-3.8-3.8
			C162.2,222.6,163.9,220.9,166,220.9z"/>
		<path class="st0" d="M176.9,220.9c2.1,0,3.8,1.7,3.8,3.8c0,2.1-1.7,3.8-3.8,3.8c-2.1,0-3.8-1.7-3.8-3.8
			C173.1,222.6,174.8,220.9,176.9,220.9z"/>
		<path class="st0" d="M203.7,220.9c2.1,0,3.8,1.7,3.8,3.8c0,2.1-1.7,3.8-3.8,3.8c-2.1,0-3.8-1.7-3.8-3.8
			C199.9,222.6,201.6,220.9,203.7,220.9z"/>
		<path class="st0" d="M97.8,229.4h57.1c2.6,0,4.6-2.1,4.6-4.6c0-2.6-2.1-4.6-4.6-4.6H97.8c-2.6,0-4.6,2.1-4.6,4.6
			C93.2,227.3,95.2,229.4,97.8,229.4z M97.8,222.1h57.1c1.5,0,2.7,1.2,2.7,2.7c0,1.5-1.2,2.7-2.7,2.7H97.8c-1.5,0-2.7-1.2-2.7-2.7
			C95.1,223.2,96.3,222.1,97.8,222.1z"/>
		<circle class="st0" cx="101.4" cy="224.7" r="1.3"/>
		<circle class="st0" cx="105.3" cy="224.7" r="1.3"/>
		<circle class="st0" cx="109.2" cy="224.7" r="1.3"/>
		<circle class="st0" cx="113.1" cy="224.7" r="1.3"/>
		<circle class="st0" cx="116.9" cy="224.7" r="1.3"/>
		<circle class="st0" cx="120.8" cy="224.7" r="1.3"/>
		<circle class="st0" cx="124.7" cy="224.7" r="1.3"/>
		<circle class="st0" cx="128.6" cy="224.7" r="1.3"/>
		<circle class="st0" cx="132.4" cy="224.7" r="1.3"/>
		<circle class="st0" cx="136.3" cy="224.7" r="1.3"/>
		<circle class="st0" cx="140.2" cy="224.7" r="1.3"/>
		<circle class="st0" cx="144.1" cy="224.7" r="1.3"/>
		<path class="st0" d="M147.9,223.4c0.7,0,1.3,0.6,1.3,1.3c0,0.7-0.6,1.3-1.3,1.3c-0.7,0-1.3-0.6-1.3-1.3
			C146.6,224,147.2,223.4,147.9,223.4z"/>
		<path class="st0" d="M151.8,223.4c0.7,0,1.3,0.6,1.3,1.3c0,0.7-0.6,1.3-1.3,1.3c-0.7,0-1.3-0.6-1.3-1.3
			C150.5,224,151.1,223.4,151.8,223.4z"/>
	</g>
</g>
</svg>
