<?xml version="1.0" encoding="utf-8"?>
<!-- Generator: Adobe Illustrator 19.0.0, SVG Export Plug-In . SVG Version: 6.00 Build 0)  -->
<svg version="1.1" id="Layer_1" xmlns="http://www.w3.org/2000/svg" xmlns:xlink="http://www.w3.org/1999/xlink" x="0px" y="0px"
	 viewBox="0 0 156.3 111.3" style="enable-background:new 0 0 156.3 111.3;" xml:space="preserve">
<style type="text/css">
	.st0{fill:#3AAA35;}
	.st1{opacity:0.2;fill:#FFFFFF;}
</style>
<path id="XMLID_56_" class="st0" d="M155.6,111.3H1.3c-0.4,0-0.7-0.3-0.7-0.7V1c0-0.4,0.3-0.7,0.7-0.7h154.3c0.4,0,0.7,0.3,0.7,0.7
	v109.6C156.3,111,156,111.3,155.6,111.3z"/>
<circle id="XMLID_45_" class="st1" cx="77.7" cy="55.1" r="28.7"/>
<path id="XMLID_32_" class="st0" d="M64.9,59.3c-0.7-0.7-1.9-0.7-2.6,0c-0.7,0.7-0.7,1.9,0,2.6l8.6,8.6c0.4,0.4,0.8,0.5,1.3,0.5h0.1
	c0.5,0,1-0.3,1.4-0.7L95,44.6c0.6-0.8,0.5-1.9-0.2-2.6c-0.8-0.6-1.9-0.5-2.6,0.2L72,66.4L64.9,59.3z"/>
</svg>
