<?xml version="1.0" standalone="no"?>
<!DOCTYPE svg PUBLIC "-//W3C//DTD SVG 20010904//EN"
 "http://www.w3.org/TR/2001/REC-SVG-20010904/DTD/svg10.dtd">
<svg version="1.0" xmlns="http://www.w3.org/2000/svg"
 width="1448.000000pt" height="1448.000000pt" viewBox="0 0 1448.000000 1448.000000"
 preserveAspectRatio="xMidYMid meet">
<metadata>
Created by potrace 1.11, written by Peter Selinger 2001-2013
</metadata>
<g transform="translate(0.000000,1448.000000) scale(0.100000,-0.100000)"
fill="#000000" stroke="none">
<path d="M6398 13685 c-2 -2 -46 -7 -98 -10 -52 -3 -111 -7 -130 -10 -19 -2
-69 -7 -110 -11 -41 -3 -83 -8 -94 -10 -10 -2 -44 -6 -75 -10 -31 -3 -63 -8
-72 -9 -9 -2 -40 -6 -70 -10 -30 -3 -62 -8 -72 -11 -10 -3 -31 -7 -47 -9 -16
-2 -57 -9 -92 -15 -35 -7 -74 -14 -88 -17 -243 -44 -625 -145 -920 -243 -147
-49 -434 -154 -510 -187 -19 -9 -48 -21 -65 -28 -279 -118 -723 -335 -915
-447 -19 -12 -55 -32 -80 -46 -76 -42 -185 -106 -190 -112 -8 -8 -43 -29 -65
-39 -28 -13 -343 -224 -449 -301 -88 -64 -375 -290 -407 -320 -9 -8 -49 -44
-90 -80 -139 -122 -350 -330 -460 -454 -24 -27 -55 -61 -68 -75 -13 -14 -49
-57 -80 -96 -31 -38 -59 -72 -62 -75 -27 -21 -249 -333 -348 -490 -57 -89 -65
-103 -141 -241 -45 -80 -180 -354 -180 -364 0 -2 -13 -33 -29 -67 -121 -264
-283 -820 -316 -1080 -3 -22 -7 -43 -9 -47 -2 -3 -7 -33 -11 -66 -4 -33 -8
-71 -10 -85 -2 -14 -6 -50 -10 -80 -3 -30 -8 -68 -10 -85 -26 -195 -27 -952
-1 -1092 2 -10 7 -53 11 -96 3 -43 8 -88 10 -100 2 -12 6 -44 10 -72 9 -83 22
-161 55 -335 11 -58 22 -121 25 -140 3 -19 12 -60 20 -90 8 -30 16 -68 19 -85
14 -79 100 -393 151 -555 20 -63 44 -137 52 -165 8 -27 31 -93 50 -145 19 -52
45 -126 59 -165 14 -38 30 -79 35 -90 4 -11 26 -65 48 -120 45 -114 120 -292
160 -380 15 -33 41 -89 57 -125 34 -77 290 -587 324 -645 12 -22 36 -65 53
-95 225 -416 643 -1070 836 -1310 251 -314 515 -569 834 -808 78 -59 181 -131
227 -161 78 -50 100 -64 185 -116 17 -11 49 -29 73 -42 24 -13 69 -38 100 -55
68 -38 228 -117 297 -148 28 -12 68 -30 90 -40 96 -45 441 -173 555 -206 261
-75 338 -95 401 -108 13 -2 62 -13 109 -24 84 -20 168 -36 245 -47 22 -4 47
-8 55 -10 8 -2 29 -6 45 -9 17 -2 62 -9 100 -15 87 -13 209 -28 295 -36 36 -3
83 -8 105 -10 165 -16 293 -20 670 -20 438 0 553 4 795 30 25 3 72 7 105 10
63 6 352 42 395 49 14 3 43 7 65 11 47 7 321 53 350 59 98 20 194 40 265 56
47 10 96 21 110 24 20 3 170 39 215 50 314 81 530 144 846 249 238 79 415 141
464 162 17 7 91 36 165 64 74 29 142 56 151 61 14 7 27 -4 65 -53 169 -218
446 -421 734 -539 120 -49 323 -111 395 -121 22 -3 47 -8 55 -11 23 -8 96 -18
250 -35 78 -9 465 -7 535 2 22 3 65 9 95 12 30 3 121 19 201 36 888 180 1558
710 1765 1394 26 86 27 89 51 210 23 117 22 536 -1 574 -2 3 -7 29 -10 56 -27
202 -194 636 -312 810 -13 20 -24 38 -24 41 0 3 -23 40 -52 82 -97 146 -237
314 -355 427 l-41 40 22 55 c47 116 140 406 172 535 41 168 88 407 99 505 3
25 7 55 9 67 3 12 8 53 11 90 4 37 9 75 10 84 12 63 20 289 20 549 0 263 -4
358 -20 525 -12 129 -17 173 -21 195 -2 14 -7 45 -10 70 -6 51 -31 212 -39
250 -3 14 -7 39 -9 55 -3 17 -16 84 -31 150 -14 66 -28 131 -31 145 -46 231
-225 795 -339 1065 -7 17 -36 86 -65 155 -60 142 -259 550 -319 655 -22 39
-44 79 -49 90 -24 52 -207 350 -320 519 -107 161 -346 490 -419 576 -11 14
-72 86 -134 160 -62 74 -118 140 -123 146 -6 6 -51 55 -101 109 -571 627
-1290 1189 -2015 1578 -41 22 -98 52 -127 68 -51 27 -278 134 -378 178 -27 13
-64 29 -80 36 -195 88 -674 254 -895 310 -112 28 -306 75 -330 80 -26 5 -42 8
-125 25 -66 13 -268 47 -325 55 -25 3 -56 8 -70 10 -14 2 -53 7 -87 10 -34 3
-71 8 -84 10 -12 2 -61 7 -108 11 -47 3 -102 8 -121 11 -42 6 -826 13 -832 8z"/>
</g>
</svg>
